<?xml version="1.0" standalone="no"?>
<!DOCTYPE svg PUBLIC "-//W3C//DTD SVG 20010904//EN"
 "http://www.w3.org/TR/2001/REC-SVG-20010904/DTD/svg10.dtd">
<svg version="1.0" xmlns="http://www.w3.org/2000/svg"
 width="160.000000pt" height="160.000000pt" viewBox="0 0 160.000000 160.000000"
 preserveAspectRatio="xMidYMid meet">
<metadata>
Created by potrace 1.14, written by Peter Selinger 2001-2017
</metadata>
<g transform="translate(0.000000,160.000000) scale(0.100000,-0.100000)"
fill="#000000" stroke="none">
<path d="M788 1555 c-2 -2 -30 -5 -64 -8 -112 -10 -260 -66 -352 -134 -143
-105 -260 -294 -288 -463 -16 -96 -6 -261 18 -330 3 -8 13 -36 22 -61 19 -53
77 -151 119 -200 15 -18 27 -35 28 -38 0 -3 2 -33 3 -66 8 -146 79 -206 240
-206 85 0 136 9 174 32 23 13 50 19 85 17 66 -2 182 11 216 24 14 5 34 11 44
13 38 8 132 57 192 100 86 61 162 148 212 241 72 137 87 202 86 369 0 96 -4
122 -32 203 -54 162 -170 311 -307 395 -84 52 -199 92 -299 103 -27 4 -60 7
-72 9 -12 1 -24 1 -25 0z"/>
</g>
</svg>
